<svg width="13" height="10" viewBox="0 0 13 10" fill="none" xmlns="http://www.w3.org/2000/svg">
<path d="M2.125 0.344238H10.25C10.7473 0.344238 11.2242 0.541782 11.5758 0.893413C11.9275 1.24504 12.125 1.72196 12.125 2.21924V7.84424C12.125 8.34152 11.9275 8.81843 11.5758 9.17006C11.2242 9.52169 10.7473 9.71924 10.25 9.71924H2.125C1.62772 9.71924 1.15081 9.52169 0.799175 9.17006C0.447544 8.81843 0.25 8.34152 0.25 7.84424V2.21924C0.25 1.72196 0.447544 1.24504 0.799175 0.893413C1.15081 0.541782 1.62772 0.344238 2.125 0.344238ZM2.125 0.969238C1.8125 0.969238 1.5375 1.07549 1.325 1.26299L6.1875 4.40674L11.05 1.26299C10.8375 1.07549 10.5625 0.969238 10.25 0.969238H2.125ZM6.1875 5.16299L0.95625 1.76924C0.90625 1.90674 0.875 2.06299 0.875 2.21924V7.84424C0.875 8.17576 1.0067 8.4937 1.24112 8.72812C1.47554 8.96254 1.79348 9.09424 2.125 9.09424H10.25C10.5815 9.09424 10.8995 8.96254 11.1339 8.72812C11.3683 8.4937 11.5 8.17576 11.5 7.84424V2.21924C11.5 2.06299 11.4688 1.90674 11.4188 1.76924L6.1875 5.16299Z" fill="white"/>
</svg>
