<svg width="18" height="18" fill="none" xmlns="http://www.w3.org/2000/svg"><path d="M17 9a1.02 1.02 0 0 1-.712-.288A1.112 1.112 0 0 1 15.925 8c-.217-1.55-.87-2.871-1.962-3.963C12.871 2.946 11.55 2.292 10 2.075a1.139 1.139 0 0 1-.712-.35A1.009 1.009 0 0 1 9 1c0-.283.1-.521.3-.713.2-.191.433-.27.7-.237 2.1.233 3.892 1.092 5.375 2.575S17.717 5.9 17.95 8a.82.82 0 0 1-.238.7c-.191.2-.429.3-.712.3Zm-4.175 0a.834.834 0 0 1-.575-.225 1.37 1.37 0 0 1-.375-.6 2.89 2.89 0 0 0-.762-1.288 2.89 2.89 0 0 0-1.288-.762 1.37 1.37 0 0 1-.6-.375.866.866 0 0 1-.225-.6c0-.333.117-.604.35-.813.233-.208.492-.279.775-.212a4.924 4.924 0 0 1 2.413 1.337 4.924 4.924 0 0 1 1.337 2.413c.067.283-.008.542-.225.775-.217.233-.492.35-.825.35Zm4.125 9c-2.15 0-4.246-.48-6.287-1.438a19.045 19.045 0 0 1-5.425-3.8 19.045 19.045 0 0 1-3.8-5.425C.479 5.296 0 3.2 0 1.05 0 .75.1.5.3.3.5.1.75 0 1.05 0H5.1a.96.96 0 0 1 .625.225A.88.88 0 0 1 6.05.8l.65 3.5c.033.233.03.446-.012.637a1.027 1.027 0 0 1-.288.513L4 7.9c.7 1.2 1.575 2.325 2.625 3.375A18.294 18.294 0 0 0 10.1 14l2.35-2.35a1.4 1.4 0 0 1 .588-.338c.241-.075.479-.095.712-.062l3.45.7c.233.05.425.162.575.337.15.175.225.38.225.613v4.05c0 .3-.1.55-.3.75-.2.2-.45.3-.75.3Z" fill="#302929"/></svg>